<?xml version="1.0" standalone="no"?><!DOCTYPE svg PUBLIC "-//W3C//DTD SVG 1.1//EN" "http://www.w3.org/Graphics/SVG/1.1/DTD/svg11.dtd"><svg t="1583935185919" class="icon" viewBox="0 0 1024 1024" version="1.1" xmlns="http://www.w3.org/2000/svg" p-id="11208" xmlns:xlink="http://www.w3.org/1999/xlink" width="200" height="200"><defs><style type="text/css"></style></defs><path d="M0 0h1024v1024H0z" fill="#FFFFFF" fill-opacity=".01" p-id="11209"></path><path d="M200.590222 164.010667v695.978666a35.953778 35.953778 0 1 1-72.021333 0V164.010667a35.953778 35.953778 0 1 1 72.021333 0z m-36.010666 659.968h694.044444a35.953778 35.953778 0 1 1 0 72.021333h-694.044444a35.953778 35.953778 0 1 1 0-72.021333z m227.214222-467.000889v371.029333a35.953778 35.953778 0 1 1-72.021334 0V356.977778a35.953778 35.953778 0 1 1 72.021334 0z m383.488-129.991111v501.020444a35.953778 35.953778 0 0 1-72.021334 0V226.986667a35.953778 35.953778 0 1 1 72.021334 0z m-192.682667 256v245.020444a35.953778 35.953778 0 1 1-72.021333 0V482.986667a36.067556 36.067556 0 0 1 72.021333 0z" fill="#02BC67" p-id="11210"></path></svg>