<?xml version="1.0" standalone="no"?><!DOCTYPE svg PUBLIC "-//W3C//DTD SVG 1.1//EN" "http://www.w3.org/Graphics/SVG/1.1/DTD/svg11.dtd"><svg t="1587730347657" class="icon" viewBox="0 0 1024 1024" version="1.1" xmlns="http://www.w3.org/2000/svg" p-id="1586" xmlns:xlink="http://www.w3.org/1999/xlink" width="200" height="200"><defs><style type="text/css"></style></defs><path d="M904 880c13.2544 0 24 10.7456 24 24 0 13.2544-10.7456 24-24 24H120c-13.2544 0-24-10.7456-24-24 0-13.2544 10.7456-24 24-24h784zM769.1152 147.6848c46.864 46.864 46.864 122.8432 0 169.7056L376.2384 710.2672a152 152 0 0 1-59.4128 36.72L202.56 785.0736c-29.3408 9.7792-61.0544-6.0768-70.8352-35.4176a56 56 0 0 1 0-35.4176l38.0896-114.2656a152 152 0 0 1 36.72-59.4128L599.408 147.6848c46.864-46.864 122.8432-46.864 169.7056 0zM245.7168 569.2576l-5.2416 5.2448a104 104 0 0 0-25.1248 40.6512l-38.088 114.264a8 8 0 0 0 10.12 10.12l114.264-38.088a104 104 0 0 0 40.6512-25.1248l5.2416-5.2432-101.8224-101.824z m356-355.9984L279.6576 535.3168l101.824 101.824 322.0576-322.0592-101.8224-101.8224z m33.9936-33.8896l101.72 101.72c25.84-28.2528 25.088-72.12-2.256-99.464-27.344-27.344-71.2112-28.096-99.464-2.256z" fill="#979797" p-id="1587"></path></svg>