<?xml version="1.0" standalone="no"?><!DOCTYPE svg PUBLIC "-//W3C//DTD SVG 1.1//EN" "http://www.w3.org/Graphics/SVG/1.1/DTD/svg11.dtd"><svg t="1584863862883" class="icon" viewBox="0 0 1024 1024" version="1.1" xmlns="http://www.w3.org/2000/svg" p-id="6897" id="mx_n_1584863862884" xmlns:xlink="http://www.w3.org/1999/xlink" width="200" height="200"><defs><style type="text/css"></style></defs><path d="M570.88 675.328l-172.032 47.616 47.616-172.032 124.416 124.416z m404.992-411.136l-41.472 41.472-124.416-124.416 41.472-41.472s18.944-18.944 38.4 0l79.872 79.872c28.672 25.6 6.144 44.544 6.144 44.544z m-67.072 70.144l-312.32 312.32L472.064 522.24l312.32-312.32 124.416 124.416z m0 0" p-id="6898" fill="#cdcdcd" data-spm-anchor-id="a313x.7781069.0.i9" class="selected"></path><path d="M628.224 707.584l-287.232 82.944 82.944-287.232 248.832-248.832c-47.616-28.672-101.888-44.544-159.232-44.544C389.12 209.92 283.648 280.064 229.376 381.952 101.888 394.752 0 503.296 0 637.44c0 140.288 114.688 254.976 254.976 254.976h555.008c117.76 0 213.504-95.744 213.504-213.504 0-98.816-67.072-181.76-159.232-204.288l-236.032 232.96z m0 0" p-id="6899" fill="#cdcdcd" data-spm-anchor-id="a313x.7781069.0.i8" class="selected"></path></svg>