<?xml version="1.0" standalone="no"?><!DOCTYPE svg PUBLIC "-//W3C//DTD SVG 1.1//EN" "http://www.w3.org/Graphics/SVG/1.1/DTD/svg11.dtd"><svg t="1588153717231" class="icon" viewBox="0 0 2034 1024" version="1.1" xmlns="http://www.w3.org/2000/svg" p-id="2042" xmlns:xlink="http://www.w3.org/1999/xlink" width="397.265625" height="200"><defs><style type="text/css"></style></defs><path d="M1383.361898 26.359394a588.057482 588.057482 0 0 0-135.982069 69.374818 793.397495 793.397495 0 0 0-117.942255 99.902439 14420.815821 14420.815821 0 0 0-113.774028 117.942255 1882.452208 1882.452208 0 0 0-111.00646-117.942255 831.670929 831.670929 0 0 0-123.494265-99.902439 635.949901 635.949901 0 0 0-140.133421-69.374818C591.095056 8.758339 537.448121 0 480.088596 0c-73.964931 0-141.044693 13.399077-201.188662 40.247858-60.093342 26.798154-110.517073 63.822808-151.237442 111.00646-40.669743 47.183652-72.159262 102.197495-94.350429 165.109031C11.104021 379.224258 0 446.793408 0 518.935794c0 72.159262 11.104021 138.749637 33.295188 199.804878 22.208042 61.055241 53.680686 114.212788 94.350428 159.573896 40.720369 45.310481 90.671589 80.900725 149.853659 106.838234 59.232696 25.886882 125.823072 38.847198 199.804878 38.847198 59.232696 0 114.246539-9.281477 165.109031-27.743177a604.021622 604.021622 0 0 0 141.53408-73.543046 777.82149 777.82149 0 0 0 122.110482-106.838233 2783.261701 2783.261701 0 0 0 109.622676-124.878049 2561.62004 2561.62004 0 0 0 112.390244 126.261833 821.073171 821.073171 0 0 0 122.110481 105.454449 605.658537 605.658537 0 0 0 141.53408 73.543046c50.913118 18.478576 106.838233 27.743177 167.893474 27.743177 74.015557 0 140.622808-13.432828 199.804878-40.230982 59.232696-26.831905 109.183916-62.911536 149.853659-108.222017 40.720369-45.361107 71.720501-98.991167 92.966645-160.95768 21.29677-62.000264 31.911404-129.046276 31.911404-201.188662s-11.104021-139.711536-33.295188-202.572445c-22.208042-62.911536-54.541332-117.030982-97.134872-162.341464-42.542914-45.361107-93.405405-81.423863-152.621226-108.222017C1691.878181 13.399077 1624.359657 0 1548.487805 0c-61.055241 0-116.085959 8.758339-165.125907 26.359394z m328.851154 317.747132c38.847198 42.542914 58.270798 97.134871 58.270798 163.725247 0 61.055241-18.951088 116.069084-56.887014 165.109031-37.902175 48.989321-89.237179 73.543045-154.021885 73.543046-35.117732 0-70.286091-7.897693-105.45445-23.591826a542.595122 542.595122 0 0 1-101.286223-59.654582 941.479235 941.479235 0 0 1-92.966645-79.095056 2057.483982 2057.483982 0 0 1-77.694396-79.095056 1154.295056 1154.295056 0 0 1 74.926829-79.095056 655.711009 655.711009 0 0 1 88.798418-72.159261 515.965722 515.965722 0 0 1 99.902439-52.718788c35.168359-13.871589 70.336717-20.807383 105.454449-20.807383 68.463546 0.016875 122.110481 21.263019 160.95768 63.839684zM584.142386 299.707317a473.878444 473.878444 0 0 1 98.518656 51.335003 653.753461 653.753461 0 0 1 88.798417 72.142387 1265.757152 1265.757152 0 0 1 77.694397 81.862623 4911.470534 4911.470534 0 0 1-74.926829 79.095056 879.664601 879.664601 0 0 1-87.414634 79.095056 481.843639 481.843639 0 0 1-97.117996 59.654582 253.434937 253.434937 0 0 1-106.838234 23.591826c-68.429796 0-122.532367-23.153065-162.341463-69.374819-39.758471-46.27238-59.671457-101.758734-59.671457-166.50969 0-64.784707 18.512327-119.326038 55.50323-163.725247 37.024654-44.399209 89.760316-66.607251 158.173237-66.607252 38.864074 0.016875 75.416216 6.480158 109.622676 19.440475z" fill="#5B5C5C" p-id="2043"></path></svg>