<?xml version="1.0" standalone="no"?><!DOCTYPE svg PUBLIC "-//W3C//DTD SVG 1.1//EN" "http://www.w3.org/Graphics/SVG/1.1/DTD/svg11.dtd"><svg t="1583935126139" class="icon" viewBox="0 0 1024 1024" version="1.1" xmlns="http://www.w3.org/2000/svg" p-id="9955" xmlns:xlink="http://www.w3.org/1999/xlink" width="200" height="200"><defs><style type="text/css"></style></defs><path d="M783.716235 284.987722H264.032742c-22.351978 0-40.51296 18.160982-40.51296 39.115961v413.511597c0 22.351978 18.160982 39.115962 40.51296 39.115961h101.980901l61.46794 58.673943 60.070941-58.673943h297.560709c22.351978 0 40.51296-18.160982 40.512961-39.115961V324.103683c-1.396999-22.351978-19.557981-39.115962-41.909959-39.115961zM374.395634 569.975443c-22.351978 0-40.51296-18.160982-40.51296-39.115961 0-22.351978 18.160982-39.115962 40.51296-39.115962 22.351978 0 40.51296 18.160982 40.512961 39.115962-1.396999 20.95498-19.557981 39.115962-40.512961 39.115961z m149.478854 0c-22.351978 0-40.51296-18.160982-40.51296-39.115961 0-22.351978 18.160982-39.115962 40.51296-39.115962s40.51296 18.160982 40.512961 39.115962c0 20.95498-18.160982 39.115962-40.512961 39.115961z m160.654844 0c-22.351978 0-40.51296-18.160982-40.512961-39.115961 0-22.351978 18.160982-39.115962 40.512961-39.115962s40.51296 18.160982 40.51296 39.115962c-1.396999 20.95498-19.557981 39.115962-40.51296 39.115961z" fill="#999999" p-id="9956"></path></svg>