<?xml version="1.0" standalone="no"?><!DOCTYPE svg PUBLIC "-//W3C//DTD SVG 1.1//EN" "http://www.w3.org/Graphics/SVG/1.1/DTD/svg11.dtd"><svg t="1588141044205" class="icon" viewBox="0 0 1024 1024" version="1.1" xmlns="http://www.w3.org/2000/svg" p-id="3777" xmlns:xlink="http://www.w3.org/1999/xlink" width="200" height="200"><defs><style type="text/css"></style></defs><path d="M135.52 17.28l763.04 0 0 987.36-763.04 0 0-987.36Z" fill="#58C6FE" p-id="3778"></path><path d="M27.68 235.2l215.68 0 0 102.24-215.68 0 0-102.24Z" fill="#58C6FE" p-id="3779"></path><path d="M192 355.52H78.88a69.28 69.28 0 1 1 0-138.4H192a69.28 69.28 0 1 1 0 138.4z m-113.12-102.24a33.12 33.12 0 1 0 0 66.08H192a33.12 33.12 0 1 0 0-66.08z" fill="#FFFFFF" p-id="3780"></path><path d="M27.68 460l215.68 0 0 102.24-215.68 0 0-102.24Z" fill="#58C6FE" p-id="3781"></path><path d="M192 580.32H78.88a69.28 69.28 0 1 1 0-138.4H192a69.28 69.28 0 1 1 0 138.4z m-113.12-102.24a33.12 33.12 0 1 0 0 66.08H192a33.12 33.12 0 1 0 0-66.08z" fill="#FFFFFF" p-id="3782"></path><path d="M27.68 684.64l215.68 0 0 102.24-215.68 0 0-102.24Z" fill="#58C6FE" p-id="3783"></path><path d="M192 805.12H78.88a69.28 69.28 0 1 1 0-138.4H192a69.28 69.28 0 1 1 0 138.4z m-113.12-102.4a33.12 33.12 0 1 0 0 66.08H192a33.12 33.12 0 1 0 0-66.08zM707.68 213.76h-315.2a18.08 18.08 0 1 1 0-36.16h315.2a18.08 18.08 0 1 1 0 36.16zM707.68 381.76h-315.2a18.08 18.08 0 0 1 0-36.16h315.2a18.08 18.08 0 0 1 0 36.16z" fill="#FFFFFF" p-id="3784"></path><path d="M516.32 1004.8h313.76a67.04 67.04 0 0 0 67.04-67.04V624z" fill="#1F88A0" p-id="3785"></path><path d="M614.4 1004.8h224.8a59.2 59.2 0 0 0 59.2-59.2V720z" fill="#2DA8C4" p-id="3786"></path></svg>